<mxfile host="app.diagrams.net" modified="2023-05-03T20:19:39.033Z" agent="Mozilla/5.0 (Windows NT 6.1; Win64; x64; rv:109.0) Gecko/20100101 Firefox/112.0" version="21.2.1" etag="JWsbFCvaoHT4Ygawrl5J" type="github">
  <diagram name="Page-1" id="xk-CDliX0W9DwiVPzAdf">
    <mxGraphModel>
      <root>
        <mxCell id="0" />
        <mxCell id="1" parent="0" />
      </root>
    </mxGraphModel>
  </diagram>
</mxfile>
